<svg xmlns="http://www.w3.org/2000/svg" viewBox="0 0 397.33 140.05"><defs><style>.cls-1,.cls-6{fill:#fff}.cls-2{fill:#0994dc}.cls-6{fill-rule:evenodd}</style></defs><path class="cls-1" d="M101.31 19.46a2.72 2.72 0 00-2.66 2l-9.81 23.45-9.64-23.29a2.85 2.85 0 00-2.84-2.16 2.89 2.89 0 00-2.89 2.82 3.39 3.39 0 00.24 1.11l.09.3a.21.21 0 000 .07l11.77 26.53a3.37 3.37 0 003.14 2.3H89a3.28 3.28 0 003-2.3l11.82-26.67a3.65 3.65 0 00.28-1.34 2.82 2.82 0 00-2.82-2.82M111.43 7.46a3 3 0 00-3.24 3v.79a3 3 0 003.24 3 3.08 3.08 0 003.3-3v-.79a3.06 3.06 0 00-3.3-3M111.43 19.46a2.86 2.86 0 00-2.83 2.88v27.19a2.85 2.85 0 002.88 2.88 2.79 2.79 0 002.83-2.88V22.34a2.85 2.85 0 00-2.88-2.88M133.2 33.23h-.12c-3.89-1.18-7.57-2.3-7.57-4.85v-.13c0-2.4 2.23-4 5.54-4a16.32 16.32 0 017.95 2.31 2.88 2.88 0 001.27.3 2.55 2.55 0 002.57-2.53 2.79 2.79 0 00-1.42-2.39 22.39 22.39 0 00-10.24-2.73c-6.58 0-11.18 3.9-11.18 9.49v.12c0 6.29 6.2 8 10.74 9.34 4.21 1.18 7.43 2.3 7.43 5v.12c0 2.66-2.39 4.45-6 4.45a17.07 17.07 0 01-9.61-3.22 2.41 2.41 0 00-1.47-.47 2.55 2.55 0 00-2.58 2.51 2.63 2.63 0 001.06 2.12 22.08 22.08 0 0012.35 4c7 0 11.67-4 11.67-9.91v-.12c0-6.34-6.28-8.21-10.42-9.46M151.46 19.46a2.85 2.85 0 00-2.82 2.88v27.19a2.84 2.84 0 002.88 2.88 2.8 2.8 0 002.83-2.88V22.34a2.85 2.85 0 00-2.89-2.88M151.46 7.46a3 3 0 00-3.24 3v.79a3 3 0 003.24 3 3.08 3.08 0 003.3-3v-.79a3.06 3.06 0 00-3.3-3M176.05 47a2.52 2.52 0 00-.64.11 8 8 0 01-2.21.31c-3.24 0-4.74-1.49-4.74-4.69V24.92h7.59a2.62 2.62 0 002.64-2.58 2.65 2.65 0 00-2.64-2.58h-7.59v-6.87a2.92 2.92 0 00-2.88-2.89 2.82 2.82 0 00-2.83 2.88v6.87h-2a2.61 2.61 0 00-2.57 2.58 2.64 2.64 0 002.57 2.58h2v18.38c0 6 3.33 9.37 9.36 9.37a12.1 12.1 0 004.79-.89 2.45 2.45 0 001.67-2.3 2.51 2.51 0 00-2.52-2.47"/><path class="cls-2" d="M60.24 48.61c1.17.52 1 1.74 2.06 2.34 1.12 1.91 2.4 4.09 1.39 6.48.72 3.31-2.27 4.56-3.6 7.11-.82.32-1.32 1.46-2.45 1a2.84 2.84 0 01-2.28.46c-.31.53-1 0-1.35.36-4.9.41-7.88-3.79-11.14-6.82-.46-.57-1.14-.61-1.7-1.25-.81 0-1.38-1-2.25-.49a4.66 4.66 0 01-2 .86c-.18.55-.93.11-.83.78-1.51.3-.88 2.64-2.75 2.05-.71.24-.9-.62-1.45-.72.11-.77-.21-1.15.11-1.77 1.1-.54 2.18-1.43 3.16-2 .17-.53 1-.53 1.5-.88.14-.22.38-.21.54-.4 1.56.21 3.38-.2 4.67.58 1.55.53 3.09 2.1 4.31 3.09 1.12 1.55 2.63 3.53 4.41 3.91.41 1.1 2 .6 3.06.91.22 0 .51-.34.66-.12.63-.2 1.53 0 1.89-.61.79.06 1.3-.63 2-.73.18-.14.21-.55.55-.38.77-.81 2.1-1.6 2.12-2.87.65-.55-.07-1.24.18-2 .66-2.28-.34-4.26-1.38-6.06a30.24 30.24 0 00-2.87-1.72c-2.06-.13-4.58-.26-5.54 1.28-.08 1.18-1.71.92-1.15 2.37-.3 1.65 1.23 2.19 2 3.28 1.27-.39 1.77.93 3.06.52a4.41 4.41 0 001.52-1.69 2.61 2.61 0 01-.35-1.62c.67 0 .31-.87 1-.9s.38.7.78 1a3.48 3.48 0 01.29 3c-.43.17-.23.61-.3.93a4.8 4.8 0 01-3.15 2 7.42 7.42 0 01-5.9-3.29c-.68-.87-1.47-2.11-1-3.38.12 0 .18-.05.27-.11-.54-.55.52-.88.18-1.34a6.3 6.3 0 013.75-3.88c1.18.46 2.08-.68 3.35-.42 1.52.39 3.06.74 4.51 1.23"/><path class="cls-2" d="M30.38 61.81a6.13 6.13 0 005.61.94c1.62-.46 2.45-1.94 3.89-2.81.47 0 .73.52 1.2.54-1.42 1.65-2.44 3.48-4.55 4.13-1.47.26-3.2.7-4.68.15-1.26-.07-1.87-.82-3-1.34v-.26a13.48 13.48 0 01-2.14-2.55c-.54-.4-.52-.8-1.05-1.07-.22-.89-1.21-1.57-1.89-2.14-.79-.82-2.23-.65-3.49-.67-2.29-.08-3.14 2.8-5.07 3.34-.24.5-1 .46-.93 1.08 2.14.91 2.91-1.62 4.55-2a4.4 4.4 0 014.54 2.41c.44.75 1.6 1.41 1.34 2.56a1.46 1.46 0 01-1.08.25 24.67 24.67 0 01-3.47-3.07c-.86-.08-1.42.58-2.27.53-1 .53-1.41 1.67-2.68 1.61a18.23 18.23 0 01-3.21-.69c-.27-.49-.88-.17-1.32-.27a25.19 25.19 0 01-1.88-4c-.4-.34-.24-.91-.79-1.19s-1.39.35-1.48-.68c-2.15-.1-3.45 1.53-4.28 3.21 0 1.12.12 2.4 1.2 2.81.57.73 1.8.36 2 1.35.62-.25 1.43 0 1.88-.68a2.6 2.6 0 00-.81-2.4c-1.07-.67-1.66.65-2.66.53a.43.43 0 01-.68.13c-.61-.16.08-.62-.13-1.06.95-1.58 2.89-1.5 4.46-1.23 1.5.44 1.42 2.33 2.4 3.21.37 1.63-1.15 2.38-2 3.35-1.54 1.35-3.13-.29-4.82-.15a4.15 4.15 0 01-2.27-1.46 7.74 7.74 0 01-.4-6c.34 0 .41-.4.4-.67 1.73-1.71 4.2-3.17 7-2.55 2.72.85 2.8 4 4.4 5.89.15.15.29.35.53.27s-.29-.73.27-.54a6 6 0 011.74-2.67c0-.54.63-.8.94-1.21.62 0 .85-1.16 1.73-.93.6-1.22 2.17-.61 3.08-1.33 5.08-.72 7 4.39 9.9 7.34"/><path d="M35.55 4.19c.22 1.56 1.24 2.95.66 4.67-.38.24-.35.74-.54 1-.34.71-.3 1.59-1.05 2.13-.36 1-1.51 1.49-2 2.15a8.37 8.37 0 01-7.35 1.46 3 3 0 01-2.27-.91 16.55 16.55 0 00-1.4-1.49c-.38-.35-.32-1.15-.5-1.92a5.8 5.8 0 010-2.42 6.53 6.53 0 01-1.2-2.67c.48-1.53 2-2.09 3.15-3.1 2.2-1.92 5.37-4.17 8.62-2.52a11.18 11.18 0 013.88 3.62" fill="#fab20b"/><path d="M44.67 2.89c.78.84 1.55 1.81 2.29 2.79.75.16 1.09-.67 1.74-.8.57-.55 1.24-1.4 2.13-1.47.87.16 1.15.83 1.88 1.34a2.43 2.43 0 00.93 1.47c1.48-.32 2.92-1.1 4.46-1.22.92 1.2 0 2.82-.31 4a30 30 0 01-1.87 3.87c0 .77-.6 1.26-.94 1.87a4.46 4.46 0 01-1.21 2.41c.12.74-.75.76-.66 1.46-1.7 1.56-1.87 3.71-3.62 5.23a18.19 18.19 0 01-2.67 2.94c-.76 1.24-2.14 1.28-3.07 2.68-.61.07-.93.84-1.49 1.06-1 1.31.22 2.69 0 4.15 1 1.48-.06 3.13-.13 4.69-.29.71-.76 1-1.05 1.73.07 1.76 2.39 3 3.28 3.18a.63.63 0 01.59.37c0 .28-1.11.67-1.64 1.53.2.8 1.57 1.06 1.76 1.57-.46.63-1.75.74-2 1.3.46.62 2 .67 2.51 1.18.08.7-.87.5-1.19.9a16 16 0 01-8.3-.4c-2.08-.28-4 .45-6 .67-.87-.14-.92.45-1.7 0-.16 0-.29-.12-.57 0-.38.51-1.51-1.08-1.47-1.87.43-.59-.35-1.78.67-2 .58-.91 1.17-2.14.53-3.2-1.7-1.51-1.14-4-2.13-5.75.15-1.54-.23-3.18.66-4.69-.1-.26.18-.47.27-.54.89-2.36 3.19-4.3 2.67-7.08-.34-.68 0-.84-.18-1.31-.16-.8-.54-1.11-.08-2 .67-3.05 4.18-3.51 6.42-5.21 2.55-.56 3.8-3.43 5.08-5.36a1.29 1.29 0 01.27-.92c1.37-1.13 1.12-3.38 2.27-4.83-.13-.5.19-.83.4-1.2a9.69 9.69 0 01.8-2.95c.29-.07.52.09.68.41" fill="#ed1c24"/><path d="M8.39 7.34c2 2.16 3 5.74 5.5 7.36a5.49 5.49 0 003.88 2.39c.83 1.07 2.5.63 3.47 1.61 1.2-.36 1.32 1.06 2.41.94a8.33 8.33 0 011.48 2.14c.43 2.7-1.78 4.29-1.74 6.82-1.36 2.78.28 5.63.12 8.56a3.25 3.25 0 01-.39 2c0 2.5-1.7 4.17-3.22 5.88-.55 1.73.67 4.15-.93 5.49-.72 0-1.26.54-2 .54a10.38 10.38 0 01-4.27.13c-.46-.63-1.5.15-1.87-.67-.65-.45-1.75-.25-2.42-.27-1.68-.17-3.17.05-5-.16a3.43 3.43 0 01-1.2 0c-.58-.33.16-1 .57-1.29a2.66 2.66 0 00.92-.61c.18-.75-1.46-.6-1.25-1.36.51-.37 1.83-.75 1.65-1.54-.29-.95-1.69-1.12-1.84-1.89A8.42 8.42 0 017.2 42c.21-.54 1-.26.94-.78.18-.56.84-1.09.4-1.75-.22-.31.09-.62-.28-1a4.22 4.22 0 00.14-1.6c.51-.58-.21-1.19.41-1.72-.13-1.24.73-2.35.8-3.22-.1-.56.26-.35.55-1.12s.66-.89.78-1.36-.08-2.82-1.46-3.54-2.09-2.1-3.21-2.91c-1.13-1.6-1.6-3.93-3.21-5.2-.16-1.4-.79-1.52-1-3a9.27 9.27 0 01-.93-2.35c.87-.77 2.54.92 3.06 0 0-.57-.26-2.07.32-2.27 1 0 2.15.57 2.81.22.78-.63-.1-3 1.08-3" fill="#00a650"/><path class="cls-1" d="M190.41 50.26l18.05-39.11a2.2 2.2 0 012.11-1.5h.12a2.21 2.21 0 012.11 1.5l18 39a2 2 0 01.25 1 1.48 1.48 0 01-1.51 1.45 1.8 1.8 0 01-1.57-1.2L223 40.48h-24.92l-5 10.93a1.6 1.6 0 01-1.51 1.14 1.4 1.4 0 01-1.45-1.32 2.24 2.24 0 01.29-.97zm31.26-12.61l-11.1-24.44-11.17 24.44zM237.48 9.52A1.44 1.44 0 01238.93 8a1.49 1.49 0 011.51 1.5V51a1.41 1.41 0 01-1.44 1.55 1.45 1.45 0 01-1.52-1.55zM249.13 57.86a1.47 1.47 0 01.84-2.71 1.81 1.81 0 01.85.24 19.62 19.62 0 0011.82 3.92c7.07 0 12.07-4 12.07-12V42.9c-2.65 3.8-6.71 7.1-12.85 7.1-7.42 0-14.79-5.67-14.79-14.49v-.12a14.64 14.64 0 0114.79-14.6 15.28 15.28 0 0112.85 6.88V22.8a1.45 1.45 0 011.45-1.51 1.5 1.5 0 011.51 1.51v24.74A14.25 14.25 0 01273.75 58c-2.66 2.66-6.64 4.11-11.17 4.11a23.23 23.23 0 01-13.45-4.25zm25.77-22.39v-.12c0-7.12-6.34-11.7-12.74-11.7s-11.89 4.46-11.89 11.64v.12a11.69 11.69 0 0011.89 11.77c6.4 0 12.74-4.71 12.74-11.71zM283.34 43.38v-.12c0-6.4 5.49-10 13.46-10a36.86 36.86 0 0110.2 1.31v-1.33c0-6.21-3.8-9.41-10.14-9.41a19.84 19.84 0 00-8.75 2.05 1.56 1.56 0 01-.66.18 1.44 1.44 0 01-1.39-1.39 1.51 1.51 0 01.84-1.33 24 24 0 0110.1-2.29c4.17 0 7.48 1.15 9.72 3.38 2.05 2.05 3.14 4.89 3.14 8.69V51a1.45 1.45 0 11-2.9 0v-3.82A14 14 0 01295.23 53c-5.73 0-11.89-3.22-11.89-9.62zm23.72-2.59v-3.5a40.58 40.58 0 00-10.44-1.39c-6.52 0-10.14 2.89-10.14 7.18v.12c0 4.47 4.22 7.06 8.93 7.06 6.28 0 11.65-3.86 11.65-9.47zM317.5 22.8a1.44 1.44 0 011.44-1.51 1.46 1.46 0 011.51 1.51v7.48c2.66-6 8-9.23 12.38-9.23a1.57 1.57 0 011.56 1.63 1.6 1.6 0 01-1.56 1.63c-6.52.6-12.38 5.49-12.38 15.39V51a1.44 1.44 0 01-1.45 1.55 1.45 1.45 0 01-1.5-1.55zM350.63 52.73h-.12a1.78 1.78 0 01-1.69-1.26l-12.38-27.76a2.62 2.62 0 01-.24-.91 1.52 1.52 0 011.57-1.51c.91 0 1.27.55 1.57 1.21L350.57 49 362 22.38a1.51 1.51 0 011.45-1.09 1.5 1.5 0 011.51 1.51 1.93 1.93 0 01-.18.79l-12.46 27.88a1.8 1.8 0 01-1.69 1.26zM383.69 53c-8.08 0-15.08-6.46-15.08-16.06v-.12c0-8.93 6.27-16 14.6-16 8.63 0 14.12 7.12 14.12 15.93a1.5 1.5 0 01-1.45 1.39h-24.13c.54 7.66 6 12.13 12.06 12.13a13.62 13.62 0 0010-4.22 1.3 1.3 0 011-.43 1.37 1.37 0 011 2.42A15.65 15.65 0 01383.69 53zm10.44-17.57c-.42-6.21-4-11.94-11-11.94-6.09 0-10.8 5.13-11.34 11.94z"/><path class="cls-6" d="M159.72 82.47H164a1.93 1.93 0 001.88-1.87v-1.77A1.94 1.94 0 00164 77h-4.3M139 104.54l12.39-12.38a.93.93 0 000-1.28l-.56-.56a.93.93 0 00-1.28 0l-14.19 14.21-.62.61-2.24 2.23a.93.93 0 000 1.27M226.54 104.54l12.39-12.38a1 1 0 000-1.28l-.56-.56a.93.93 0 00-1.28 0l-14.2 14.21-.62.61-2.27 2.23a.92.92 0 000 1.27M302.26 108.4l.61-.62 8.72-8.72a.92.92 0 000-1.27l-.56-.56a.93.93 0 00-1.28 0l-8.75 8.71-.6.62-.82.81a.92.92 0 000 1.27l.56.57"/><path class="cls-6" d="M141.53 85a16.35 16.35 0 00-28.34 0 16.24 16.24 0 00-2.19 8.1 16.37 16.37 0 1030.53-8.1m-4.79 13.53a11 11 0 01-4 4 10.58 10.58 0 01-10.76 0 11 11 0 01-4-4 10.6 10.6 0 010-10.77 10.93 10.93 0 014-4 10.58 10.58 0 0110.76 0 10.93 10.93 0 014 4 10.6 10.6 0 010 10.77M155.36 84.75a7.84 7.84 0 00-2.15 5.62v17.2a1.94 1.94 0 01-1.89 1.89h-1.73a2 2 0 01-1.89-1.89V90.3a13.15 13.15 0 013.69-9.38 12.36 12.36 0 019.22-4 2 2 0 011.9 1.89v1.73a2 2 0 01-1.9 1.89 6.81 6.81 0 00-5.25 2.28"/><path class="cls-1" d="M107 72.94a16.5 16.5 0 00-6.42-5.94 16.83 16.83 0 00-19.45 2.56c-3.43 3-5.16 7.3-5.16 12.67v25.22a2 2 0 002 2h1.77a2 2 0 002-2V83.07c0-4.34 1.11-7.39 3.36-9.31a11.38 11.38 0 017.61-3 10.79 10.79 0 017.74 3.24 11 11 0 010 15.82 11.38 11.38 0 01-7.75 3 10.44 10.44 0 01-5.75-1.63 2 2 0 00-3 1.66v2.05A2 2 0 0085 96.68a16.58 16.58 0 007.85 1.88 17.21 17.21 0 007.82-2 16.74 16.74 0 006.33-5.81 16.33 16.33 0 002.51-8.94 16 16 0 00-2.51-8.87"/><path class="cls-6" d="M225.74 105.44a14.48 14.48 0 01-20.12-.09 13.48 13.48 0 01-3.91-9.59V78.85A1.94 1.94 0 01203.6 77h1.73a1.94 1.94 0 011.89 1.89v16.87a8.06 8.06 0 002.29 5.82 8.76 8.76 0 006.18 2.37 8.65 8.65 0 006.18-2.37 8 8 0 002.36-5.82V78.85a1.94 1.94 0 011.89-1.85h1.73a1.94 1.94 0 011.89 1.89v16.87a13.44 13.44 0 01-4 9.68"/><path class="cls-1" d="M297.48 81.07a16.48 16.48 0 00-19-2.51 16.12 16.12 0 00-6.3 5.79 15.61 15.61 0 00-2.49 8.65 16 16 0 002.47 8.77 16.36 16.36 0 006.3 5.71 16.73 16.73 0 007.65 1.94 16.23 16.23 0 007.62-1.81 2 2 0 001-1.72v-2a1.94 1.94 0 00-3-1.65 10.24 10.24 0 01-5.61 1.59 11.12 11.12 0 01-7.56-3 10.76 10.76 0 010-15.51 10.5 10.5 0 017.58-3.14 11.19 11.19 0 017.46 2.92c2.2 1.89 3.27 4.87 3.27 9.11v13.13a2 2 0 001.95 2h1.73a2 2 0 001.94-2V93.47c0-5.26-1.7-9.44-5-12.4M330.24 102.36a1.93 1.93 0 00-1.93 0 10 10 0 01-5.48 1.56 10.85 10.85 0 01-7.39-2.9 9.17 9.17 0 01-1.34-1.46c-.21-.31-.41-.63-.6-1a13.13 13.13 0 01-1.29-5.13v-.1-21.97a1.94 1.94 0 00-1.89-1.88h-1.67a2 2 0 00-1.89 1.89v22.75c0 .26 0 .53.05.79a1.1 1.1 0 000 .18c0 .23 0 .46.07.68a14.7 14.7 0 004.8 9.42 16.33 16.33 0 0010.86 4.23h.22a15.86 15.86 0 007.44-1.77 1.91 1.91 0 001-1.68v-2a1.89 1.89 0 00-1-1.66"/><path class="cls-6" d="M262.63 83.71L265 81.3l2.48-2.48a.92.92 0 000-1.27l-.57-.56a.92.92 0 00-1.27 0l-2.48 2.48-.61.61-2.23 2.23a.93.93 0 000 1.28l.57.56M201.17 104.48l1.62-1.62 1.23-1.22 1.08-1.1a1.84 1.84 0 000-2.54l-1-1c0-.38.06-.76.06-1.14v-1.93l-7.81 8c-1.48 1.56-3.84 2-6.08 2a10 10 0 01-4.85-1.37 10.42 10.42 0 01-3.69-4 13.64 13.64 0 01-1.33-6.22v-10H196a1.93 1.93 0 001.87-1.87v-1.64A1.94 1.94 0 00196 77h-15.59v-6a2 2 0 00-1.9-1.89h-1.67A1.94 1.94 0 00175 71v6h-3.5a1.94 1.94 0 00-1.88 1.88v1.72a1.93 1.93 0 001.88 1.87h3.5v10.69c0 5 1.6 9.09 5 12.07a16.32 16.32 0 0010.31 4.21h.54a2.1 2.1 0 00.37 0 13.93 13.93 0 009.06-4z"/><path class="cls-6" d="M262.7 110a22.06 22.06 0 00-5.47-3.79c.51.24 1 .5 1.46.78a16.29 16.29 0 005.53-22 16.86 16.86 0 00-1.13-1.71 1.91 1.91 0 00-.47-.87 18 18 0 00-12.83-5.67 16.46 16.46 0 00-16.4 16.4c0 8.37 5.36 13.86 16 16.34a19.86 19.86 0 019.32 4.54 10.24 10.24 0 013.38 7.93 12.48 12.48 0 01-12.42 12.42 12.28 12.28 0 01-6.18-1.67 12.48 12.48 0 01-6.24-10.75 12.7 12.7 0 011.46-6 11.8 11.8 0 012.53-3.14 2.06 2.06 0 00.65-1.74 2 2 0 00-1.07-1.51l-1.54-.79a1.94 1.94 0 00-2.19.26c-3.84 3.54-5.54 7.28-5.54 12.89a18.12 18.12 0 0036.23 0 15.87 15.87 0 00-5.06-12M250 104a10.85 10.85 0 01-10.07-6.83 9.4 9.4 0 01-.83-4 10.23 10.23 0 011-4.5A10.85 10.85 0 01258.94 87h.06c.15.22.29.43.43.67a10.58 10.58 0 010 10.76 10 10 0 01-1 1.46l-.09.12c-.09.1-.16.19-.24.27s-.22.24-.33.36a.17.17 0 00-.06.06 11 11 0 01-4 2.56l-.33.11-.18.06-.44.12h-.09l-.44.11h-.12l-.41.08h-.54a4.46 4.46 0 01-.63.05l.39.09-.42-.09h-.5m3.16.64"/></svg>